<svg preserveAspectRatio="none" width="100%" height="100%" overflow="visible" style="display: block;" viewBox="0 0 58.5 67.6455" fill="none" xmlns="http://www.w3.org/2000/svg">
<g id="Group">
<g id="Vector">
</g>
<path id="Vector_2" fill-rule="evenodd" clip-rule="evenodd" d="M42.25 0C46.5598 0 50.693 1.71205 53.7405 4.75951C56.788 7.80698 58.5 11.9402 58.5 16.25V42.25C58.5 46.5598 56.788 50.693 53.7405 53.7405C50.693 56.788 46.5598 58.5 42.25 58.5H16.25C11.9402 58.5 7.80698 56.788 4.75951 53.7405C1.71205 50.693 0 46.5598 0 42.25V16.25C0 11.9402 1.71205 7.80698 4.75951 4.75951C7.80698 1.71205 11.9402 0 16.25 0H42.25ZM42.25 6.5H16.25C13.6641 6.5 11.1842 7.52723 9.35571 9.35571C7.52723 11.1842 6.5 13.6641 6.5 16.25V42.25C6.5 44.8359 7.52723 47.3158 9.35571 49.1443C11.1842 50.9728 13.6641 52 16.25 52H42.25C44.8359 52 47.3158 50.9728 49.1443 49.1443C50.9728 47.3158 52 44.8359 52 42.25V16.25C52 13.6641 50.9728 11.1842 49.1443 9.35571C47.3158 7.52723 44.8359 6.5 42.25 6.5ZM29.25 16.25C32.6978 16.25 36.0044 17.6196 38.4424 20.0576C40.8804 22.4956 42.25 25.8022 42.25 29.25C42.25 32.6978 40.8804 36.0044 38.4424 38.4424C36.0044 40.8804 32.6978 42.25 29.25 42.25C25.8022 42.25 22.4956 40.8804 20.0576 38.4424C17.6196 36.0044 16.25 32.6978 16.25 29.25C16.25 25.8022 17.6196 22.4956 20.0576 20.0576C22.4956 17.6196 25.8022 16.25 29.25 16.25ZM29.25 22.75C27.5261 22.75 25.8728 23.4348 24.6538 24.6538C23.4348 25.8728 22.75 27.5261 22.75 29.25C22.75 30.9739 23.4348 32.6272 24.6538 33.8462C25.8728 35.0652 27.5261 35.75 29.25 35.75C30.9739 35.75 32.6272 35.0652 33.8462 33.8462C35.0652 32.6272 35.75 30.9739 35.75 29.25C35.75 27.5261 35.0652 25.8728 33.8462 24.6538C32.6272 23.4348 30.9739 22.75 29.25 22.75ZM43.875 11.375C44.737 11.375 45.5636 11.7174 46.1731 12.3269C46.7826 12.9364 47.125 13.763 47.125 14.625C47.125 15.487 46.7826 16.3136 46.1731 16.9231C45.5636 17.5326 44.737 17.875 43.875 17.875C43.013 17.875 42.1864 17.5326 41.5769 16.9231C40.9674 16.3136 40.625 15.487 40.625 14.625C40.625 13.763 40.9674 12.9364 41.5769 12.3269C42.1864 11.7174 43.013 11.375 43.875 11.375Z" fill="var(--fill-0, black)"/>
</g>
</svg>
