<svg preserveAspectRatio="none" width="100%" height="100%" overflow="visible" style="display: block;" viewBox="0 0 85.8015 85.8015" fill="none" xmlns="http://www.w3.org/2000/svg">
<g id="Group 2">
<g id="R">
<path d="M35.3171 50.203L29.1665 38.9724H26.8348V50.203H20.0812V21.9068H30.9353C32.3021 21.9068 33.6287 22.0533 34.9151 22.3464C36.2283 22.6128 37.3941 23.0791 38.4125 23.7452C39.4577 24.4113 40.2885 25.2906 40.9049 26.383C41.5213 27.4754 41.8295 28.8343 41.8295 30.4596C41.8295 32.378 41.3069 33.99 40.2617 35.2955C39.2165 36.6011 37.7693 37.5337 35.9201 38.0932L43.3571 50.203H35.3171ZM35.0357 30.5795C35.0357 29.9134 34.8883 29.3805 34.5935 28.9808C34.3255 28.5545 33.9637 28.2348 33.5081 28.0216C33.0793 27.7818 32.5835 27.622 32.0207 27.542C31.4847 27.4621 30.9621 27.4221 30.4529 27.4221H26.7946V34.0166H30.0509C30.6137 34.0166 31.1899 33.9766 31.7795 33.8967C32.3691 33.7901 32.9051 33.6169 33.3875 33.3771C33.8699 33.1373 34.2585 32.791 34.5533 32.338C34.8749 31.8851 35.0357 31.2989 35.0357 30.5795Z" fill="var(--fill-0, white)" fill-opacity="0.63"/>
<path d="M30.9357 21.4068C32.3341 21.4068 33.6936 21.5572 35.0138 21.857C36.3828 22.1347 37.6101 22.6226 38.6867 23.3267H38.6857C39.7987 24.037 40.6847 24.976 41.34 26.1372C42.0094 27.3236 42.3292 28.773 42.3293 30.4595C42.3293 32.4738 41.7788 34.2009 40.6525 35.6079C39.6553 36.8536 38.3216 37.7686 36.675 38.3667L43.7834 49.9409L44.2511 50.7027H35.0207L34.8781 50.4429L28.8703 39.4722H27.3351V50.7027H19.5812V21.4068H30.9357ZM27.2951 33.5161H30.0509C30.5875 33.5161 31.1384 33.4773 31.7043 33.4009C32.247 33.3016 32.7331 33.144 33.1652 32.9292C33.5672 32.7293 33.8877 32.4433 34.1339 32.065L34.1398 32.0572L34.1457 32.0484C34.3916 31.7019 34.5353 31.2256 34.5353 30.5796C34.5353 29.9845 34.4043 29.5665 34.1916 29.2779L34.1798 29.2622L34.1701 29.2466C33.9531 28.9016 33.6645 28.6465 33.296 28.4742L33.2794 28.4673L33.2638 28.4576C32.8966 28.2523 32.4614 28.1092 31.9503 28.0367H31.9464V28.0357C31.4337 27.9592 30.936 27.9224 30.4533 27.9224H27.2951V33.5161Z" stroke="var(--stroke-0, white)" stroke-opacity="0.63"/>
</g>
<g id="B">
<path d="M67.1768 55.6617C67.1768 57.207 66.8725 58.5126 66.264 59.5784C65.6555 60.6175 64.8485 61.4568 63.8431 62.0963C62.8378 62.7357 61.6869 63.202 60.3905 63.4951C59.1205 63.7615 57.8109 63.8947 56.4615 63.8947H45.27V35.5985H56.4615C57.5463 35.5985 58.6575 35.7184 59.7952 35.9582C60.9328 36.1713 61.9647 36.5577 62.8907 37.1172C63.8167 37.6501 64.5707 38.3828 65.1528 39.3154C65.7349 40.2479 66.0259 41.4336 66.0259 42.8724C66.0259 44.4444 65.6026 45.75 64.7559 46.7891C63.9093 47.8016 62.7981 48.5343 61.4223 48.9873V49.0672C62.216 49.2004 62.9568 49.4535 63.6447 49.8266C64.3591 50.1729 64.9676 50.6259 65.4703 51.1854C65.9994 51.7449 66.4095 52.3977 66.7006 53.1438C67.018 53.8898 67.1768 54.7291 67.1768 55.6617ZM59.4777 43.7916C59.4777 42.8324 59.1073 42.1397 58.3665 41.7134C57.6521 41.2604 56.5806 41.0339 55.1519 41.0339H51.8182V46.869H55.4694C56.7393 46.869 57.7183 46.6159 58.4061 46.1097C59.1205 45.5768 59.4777 44.8041 59.4777 43.7916ZM60.3905 55.0222C60.3905 53.8498 59.9539 53.0372 59.0808 52.5842C58.2077 52.1313 57.0436 51.9048 55.5884 51.9048H51.8182V58.3794H55.6281C56.1573 58.3794 56.6996 58.3394 57.2552 58.2595C57.8373 58.1529 58.3532 57.9797 58.803 57.7399C59.2792 57.5001 59.6629 57.1671 59.9539 56.7407C60.2449 56.2878 60.3905 55.7149 60.3905 55.0222Z" fill="var(--fill-0, white)" fill-opacity="0.63"/>
<path d="M56.4614 35.0985C57.5831 35.0985 58.7289 35.2222 59.8979 35.4686L59.897 35.4696C61.0814 35.6926 62.1637 36.0958 63.1392 36.6835C64.1385 37.2585 64.9524 38.0505 65.5767 39.0506C66.2213 40.0835 66.5258 41.3681 66.5259 42.8719C66.5259 44.5382 66.0755 45.9621 65.144 47.1053L65.1392 47.1102C64.5099 47.8627 63.7464 48.4671 62.856 48.9276C63.2093 49.0551 63.5522 49.207 63.8833 49.3866H63.8823C64.6393 49.7565 65.2915 50.241 65.8335 50.8417C66.4053 51.4463 66.8475 52.1502 67.1606 52.9481L67.2827 53.2587C67.5477 53.9928 67.6772 54.796 67.6772 55.662C67.6772 57.272 67.3592 58.6676 66.6978 59.826L66.6958 59.8309C66.0476 60.9378 65.1849 61.8359 64.1118 62.5184C63.0526 63.1921 61.8466 63.678 60.5005 63.9823L60.4927 63.9842C59.1878 64.258 57.8437 64.3944 56.4614 64.3944H44.77V35.0985H56.4614ZM52.3179 57.8797H55.6284C56.1283 57.8797 56.6425 57.841 57.1714 57.7655C57.708 57.6667 58.1718 57.5099 58.5679 57.2987L58.5776 57.2928L58.5786 57.2938C58.9817 57.0908 59.2989 56.8127 59.5405 56.4589C59.7623 56.108 59.8901 55.6395 59.8901 55.0223C59.8901 53.9934 59.5223 53.3769 58.8501 53.0282C58.0741 52.6257 56.9987 52.4051 55.5884 52.4051H52.3179V57.8797ZM52.3179 46.369H55.4692C56.682 46.369 57.5406 46.1259 58.1099 45.7069C58.6774 45.2823 58.978 44.6696 58.978 43.7919C58.978 42.9852 58.6809 42.471 58.1167 42.1464L58.1079 42.1415L58.0991 42.1356C57.5028 41.7575 56.5438 41.534 55.1519 41.534H52.3179V46.369Z" stroke="var(--stroke-0, white)" stroke-opacity="0.63"/>
</g>
<circle id="Ellipse 2" cx="42.9008" cy="42.9008" r="40.4008" stroke="var(--stroke-0, white)" stroke-opacity="0.63" stroke-width="5"/>
</g>
</svg>
